<mxfile host="app.diagrams.net" modified="2022-09-02T08:37:07.648Z" agent="5.0 (Macintosh; Intel Mac OS X 10_15_7) AppleWebKit/537.36 (KHTML, like Gecko) Chrome/104.0.0.0 Safari/537.36" etag="OwMMofzkcf75xEje6Csh" version="20.2.8" type="github">
  <diagram name="Page-1" id="197159a0-c6a4-9194-75a8-e4174976684c">
    <mxGraphModel dx="2097" dy="1078" grid="1" gridSize="10" guides="1" tooltips="1" connect="1" arrows="1" fold="1" page="1" pageScale="1.5" pageWidth="1169" pageHeight="826" background="none" math="0" shadow="0">
      <root>
        <mxCell id="0" style=";html=1;" />
        <mxCell id="1" style=";html=1;" parent="0" />
        <mxCell id="1257a543d1cacc4b-45" value="Production site 2" style="whiteSpace=wrap;html=1;fillColor=#dae8fc;fontSize=14;strokeColor=none;verticalAlign=bottom;" parent="1" vertex="1">
          <mxGeometry x="520" y="620" width="830" height="400" as="geometry" />
        </mxCell>
        <mxCell id="1257a543d1cacc4b-50" value="" style="line;strokeWidth=3;html=1;fillColor=none;gradientColor=none;fontSize=14;strokeColor=#808080;" parent="1" vertex="1">
          <mxGeometry x="220" y="1070" width="1200" height="10" as="geometry" />
        </mxCell>
        <mxCell id="1257a543d1cacc4b-52" value="Title" style="text;strokeColor=none;fillColor=none;html=1;fontSize=24;fontStyle=1;verticalAlign=middle;align=center;" parent="1" vertex="1">
          <mxGeometry x="160" y="60" width="1420" height="40" as="geometry" />
        </mxCell>
        <mxCell id="ONQz15cpCNOjHjJUsw6w-2" value="" style="image;html=1;image=img/lib/clip_art/networking/Switch_128x128.png" vertex="1" parent="1">
          <mxGeometry x="780" y="840" width="150" height="120" as="geometry" />
        </mxCell>
        <mxCell id="ONQz15cpCNOjHjJUsw6w-3" value="" style="image;html=1;image=img/lib/clip_art/networking/Router_128x128.png" vertex="1" parent="1">
          <mxGeometry x="1060" y="855" width="140" height="90" as="geometry" />
        </mxCell>
        <mxCell id="ONQz15cpCNOjHjJUsw6w-4" value="" style="aspect=fixed;html=1;points=[];align=center;image;fontSize=12;image=img/lib/azure2/networking/Virtual_WANs.svg;" vertex="1" parent="1">
          <mxGeometry x="1420" y="855" width="137.11" height="135" as="geometry" />
        </mxCell>
        <mxCell id="ONQz15cpCNOjHjJUsw6w-5" value="" style="sketch=0;aspect=fixed;pointerEvents=1;shadow=0;dashed=0;html=1;strokeColor=none;labelPosition=center;verticalLabelPosition=bottom;verticalAlign=top;align=center;fillColor=#00188D;shape=mxgraph.mscae.enterprise.router" vertex="1" parent="1">
          <mxGeometry x="950" y="740" width="102.56" height="80" as="geometry" />
        </mxCell>
      </root>
    </mxGraphModel>
  </diagram>
</mxfile>
